# xmcd
#
# Track frame offsets:
#	150
#	13070
#	32062
#	45430
#	56789
#	69163
#	83722
#	98338
#	112106
#	126238
#	139044
#	152989
#
# Disc length: 2212 seconds
#
# Revision: 1
# Processed by: cddbd v1.4PL0 Copyright (c) Steve Scherf et al.
# Submitted via: CDmax 2.0
#
DISCID=9808a20c
DTITLE=Justin Trevino - The Scene of the Crying
DYEAR=2002
DGENRE=Country
TTITLE0=Two Empty Glasses
TTITLE1=Scene of the Crying
TTITLE2=Three's a Crowd
TTITLE3=What Have We Done
TTITLE4=You'll Never Get a Better Chance (Than This)
TTITLE5=Sound That a Breaking Heart Makes
TTITLE6=Rest of My Years
TTITLE7=She Didn't Color Daddy
TTITLE8=Daydreaming
TTITLE9=Then and Only Then
TTITLE10=I Saw a Man Dying Today
TTITLE11=Old Faithful
EXTD=
EXTT0=
EXTT1=
EXTT2=
EXTT3=
EXTT4=
EXTT5=
EXTT6=
EXTT7=
EXTT8=
EXTT9=
EXTT10=
EXTT11=
PLAYORDER=
